<svg width="1000" height="690" viewBox="0 0 1000 690" fill="none" xmlns="http://www.w3.org/2000/svg">
<path d="M111.451 646.807H26.5774L7.17785 689.903H0L64.9886 545.735H72.8697L137.955 690H130.899L111.451 646.807ZM29.0024 641.453H109.026L72.6515 560.687L69.305 552.27H68.5776L65.3281 560.687L29.0024 641.453Z" fill="black"/>
<path d="M258.839 668.416L264.95 669.404L256.657 678.159C246.456 685.988 233.021 689.903 216.354 689.903C198.878 689.903 184.878 684.075 174.354 672.419C163.83 660.763 158.567 645.489 158.567 626.598V604.893C158.567 586.001 163.83 570.728 174.354 559.071C184.878 547.415 198.878 541.571 216.354 541.539C233.021 541.539 246.456 545.47 256.657 553.332C258.184 554.513 265.265 562.568 265.289 562.592L260.148 565.342L252.874 557.504C243.917 550.43 231.793 546.892 216.499 546.892C201.206 546.892 188.645 552.198 178.816 562.809C169.31 573.437 164.557 587.4 164.557 604.7V626.405C164.557 643.913 169.31 657.965 178.816 668.56C188.321 679.155 200.858 684.453 216.427 684.453C223.047 684.453 239.415 685.104 252.801 674.252C255.001 672.508 257.024 670.553 258.839 668.416Z" fill="black"/>
<path d="M451.623 686.647V545.735H498.91C516.07 545.333 532.715 551.586 545.323 563.171C551.529 568.758 556.445 575.615 559.735 583.271C563.025 590.926 564.611 599.199 564.383 607.521V624.764C564.634 633.111 563.059 641.412 559.768 649.094C556.477 656.776 551.549 663.657 545.323 669.259C532.702 680.818 516.062 687.052 498.91 686.647H451.623ZM457.516 550.871V681.414H498.74C514.371 681.743 529.509 675.968 540.91 665.328C546.575 660.204 551.064 653.926 554.073 646.923C557.081 639.919 558.538 632.354 558.345 624.74V607.232C558.52 599.667 557.053 592.153 554.044 585.203C551.035 578.253 546.555 572.03 540.91 566.957C529.55 556.36 514.482 550.589 498.91 550.871H457.516Z" fill="black"/>
<path d="M683.375 613.671H608.759V681.197H694.214V686.575H603.012V541.514H694.238V546.892H608.759V608.293H683.35L683.375 613.671Z" fill="black"/>
<path d="M790.461 653.511L850.212 541.514H856.226V685.61H850.915V554.682H850.333L793.298 665.232H788.448L728.673 551.884H728.091V685.61H722.781V541.514H730.056L790.461 653.511Z" fill="black"/>
<path d="M935.593 606.749L938.285 610.536L941.267 606.677L992.967 541.562H1000L940.782 616.565L941.704 685.61H935.835C935.835 662.555 935.835 639.508 935.835 616.468L877.491 541.514H884.475L935.593 606.749Z" fill="black"/>
<path d="M395.291 646.446H310.418L291.019 689.542H283.962L348.926 545.277H356.807L421.893 689.542H414.764L395.291 646.446ZM312.843 641.092H392.866L356.492 560.326L353.146 551.909H352.418L349.193 560.326L312.843 641.092Z" fill="black"/>
<path d="M52.1865 458.274C38.6462 458.518 25.5181 453.608 15.4546 444.536C5.15403 435.377 0.00372694 422.567 0.00372694 406.106C-0.0780353 399.417 1.18625 392.779 3.72123 386.59C6.25621 380.4 10.01 374.784 14.7589 370.078C19.4448 365.166 25.1006 361.284 31.3666 358.678C37.6326 356.073 44.3715 354.802 51.1549 354.946C57.9926 354.826 64.7844 356.087 71.1244 358.654C77.4643 361.221 83.2225 365.041 88.0547 369.886C92.9754 374.539 96.8753 380.167 99.5064 386.411C102.137 392.654 103.442 399.378 103.338 406.154C103.338 422.423 98.2433 435.233 88.0547 444.584C78.3032 453.597 65.4567 458.5 52.1865 458.274Z" fill="#FACF5B"/>
<path d="M355.083 413.279V405.321C345.502 416.528 334.739 426.666 322.983 435.561C312.566 443.263 300.979 449.24 288.666 453.262C275.615 457.404 261.99 459.447 248.299 459.314C229.692 459.476 211.304 455.281 194.606 447.064C177.933 438.747 163.327 426.809 151.854 412.122C139.455 396.248 130.182 378.163 124.525 358.828C118.156 337.29 115.013 314.925 115.199 292.464C115.199 242.129 127.522 202.902 152.167 174.784C176.813 146.666 209.25 132.607 249.48 132.607C272.744 132.607 292.361 136.626 308.331 144.665C324.3 152.703 339.885 164.865 355.083 181.15V62.2161C354.542 51.0235 355.099 39.8046 356.746 28.7207C357.398 24.4439 358.906 20.3429 361.18 16.6633C362.657 14.3655 364.441 12.2804 366.482 10.4658C373.357 4.31746 382.082 0.635116 391.28 0C396.325 0.0184773 401.315 1.05283 405.952 3.04144C410.589 5.03005 414.779 7.93223 418.272 11.5751C421.633 15.082 424.335 19.1665 426.249 23.6325C431.184 34.4787 432.979 46.4931 431.43 58.3096V413.279C431.43 428.616 427.879 440.119 420.778 447.788C417.29 451.569 413.028 454.554 408.283 456.539C403.538 458.524 398.421 459.463 393.281 459.29C388.117 459.406 382.992 458.387 378.265 456.303C373.539 454.22 369.327 451.123 365.928 447.233C358.698 439.339 355.083 428.021 355.083 413.279ZM196.413 292.705C196.413 314.987 199.803 333.95 206.583 349.592C213.363 365.235 222.65 377.027 234.442 384.968C240.722 389.153 247.606 392.35 254.854 394.446C260.229 395.855 265.758 396.592 271.314 396.64C279.33 396.858 287.329 395.783 295.004 393.457C300.94 391.558 306.609 388.908 311.873 385.571C328.213 375.081 335.973 359.31 339.901 350.967C350.77 328.082 350.721 307.415 350.504 291.934C350.288 276.452 349.854 257.546 339.66 236.638C335.225 227.668 327.104 211.27 310.741 203.625C304.355 200.913 297.709 198.86 290.907 197.5C284.932 196.292 278.856 195.654 272.76 195.595C265.187 195.222 257.61 196.227 250.396 198.561C246.32 200.01 242.423 201.919 238.78 204.252C225.533 212.569 214.35 223.793 206.077 237.072C196.221 254.459 196.413 270.254 196.413 292.609V292.705Z" fill="black"/>
<path d="M778.002 294.78C778.23 316.955 774.542 338.997 767.109 359.889C760.311 379.013 749.553 396.483 735.539 411.158C721.636 425.532 704.803 436.742 686.184 444.026C665.592 451.94 643.678 455.845 621.622 455.529C599.745 455.87 578.011 451.938 557.638 443.954C539.055 436.495 522.26 425.187 508.355 410.772C494.36 396.194 483.602 378.821 476.785 359.793C469.39 338.894 465.751 316.851 466.037 294.683C465.813 272.326 469.533 250.106 477.026 229.043C483.752 209.997 494.429 192.591 508.355 177.968C522.257 163.662 539.097 152.547 557.71 145.388C599.203 130.085 644.798 130.136 686.256 145.533C704.975 152.854 721.905 164.113 735.901 178.546C749.822 193.136 760.499 210.51 767.23 229.525C774.625 250.474 778.272 272.564 778.002 294.78ZM699.39 294.78C699.39 262.53 692.361 237.427 678.303 219.469C664.245 201.512 645.352 192.541 621.622 192.557C607.214 192.306 593.082 196.517 581.159 204.614C569.479 212.653 560.49 224.477 554.192 240.087C547.551 257.556 544.336 276.142 544.721 294.828C544.371 313.303 547.57 331.673 554.144 348.941C560.361 364.391 569.254 376.215 580.822 384.414C592.827 392.762 607.176 397.069 621.79 396.713C645.504 396.713 664.39 387.686 678.448 369.632C692.506 351.578 699.487 326.627 699.39 294.78Z" fill="black"/>
<path d="M792.966 143.531H835.791L836.104 108.034C836.104 95.816 836.417 86.2344 837.044 79.2893C837.479 73.0006 839.289 66.8842 842.346 61.372C845.311 56.1171 849.63 51.7536 854.853 48.7359C860.37 45.4878 866.672 43.8194 873.072 43.9129C877.833 43.9455 882.54 44.9188 886.924 46.7769C891.308 48.635 895.282 51.3413 898.617 54.7404C903.623 59.4409 906.999 65.616 908.257 72.3684C909.834 82.1408 910.519 92.0364 910.306 101.933L910.137 143.193L973.422 143.338C979.715 143.606 985.752 145.907 990.629 149.897C993.678 152.449 996.105 155.662 997.725 159.294C999.345 162.925 1000.12 166.879 999.979 170.853C1000.02 174.284 999.452 177.696 998.316 180.933C997.235 183.885 995.663 186.633 993.665 189.06C986.749 197.042 975.109 196.969 973.205 196.921H910.137C910.137 247.209 910.137 297.496 910.137 347.783C910.006 356.915 910.417 366.046 911.366 375.13C911.948 380.868 914.278 386.29 918.041 390.659C921.576 394.646 927.328 396.64 935.297 396.64C941.25 396.421 947.167 395.613 952.961 394.228C958.669 392.859 964.497 392.052 970.361 391.817C973.418 391.861 976.432 392.537 979.215 393.803C981.997 395.069 984.489 396.897 986.532 399.172C988.898 401.56 990.757 404.401 992 407.525C993.242 410.65 993.841 413.993 993.762 417.355C993.762 429.573 987.239 438.921 974.193 445.4C961.147 451.879 942.398 455.094 917.945 455.046C894.745 455.046 877.169 451.027 865.216 442.989C853.497 435.338 845.103 423.537 841.719 409.951C837.976 396.077 836.104 377.38 836.104 353.86C836.907 307.914 836.907 261.292 836.104 213.995C836.007 208.255 835.895 202.524 835.766 196.801H794.002C790.687 196.892 787.394 196.241 784.363 194.896C781.443 193.511 778.811 191.589 776.603 189.229C775.125 187.805 773.793 186.238 772.626 184.55C769.67 180.442 767.993 175.551 767.806 170.491C767.723 165.262 769.292 160.139 772.289 155.854C775.382 151.551 779.625 148.207 784.531 146.208C787.217 144.958 790.052 144.059 792.966 143.531Z" fill="black"/>
</svg>
